<svg width="180" height="180" viewBox="0 0 180 180" fill="none" xmlns="http://www.w3.org/2000/svg">
<path d="M89.8547 90.973C90.5135 91.7982 90.2191 93.3642 89.0705 93.5597C88.0015 93.7407 84.9515 91.6872 83.9163 91.0019C80.1544 88.5165 76.9355 85.37 73.5211 82.4575C73.1857 84.1224 71.9719 85.5558 72.9347 87.2642C73.4197 88.1256 76.2116 90.4469 77.1334 91.2673C78.2892 92.2929 83.2383 95.8834 83.3613 97.0923C82.5506 100.167 79.4185 97.4205 77.8862 96.3057C75.9824 94.9206 74.1436 93.246 72.4304 91.6269C72.469 97.1358 76.1923 102.116 80.637 105.094C81.3851 105.094 82.8281 100.572 85.2652 102.802C86.6551 104.073 85.0721 106.107 84.3289 107.384C80.8373 113.397 74.479 120.638 69.7809 125.894C63.8715 132.503 53.7586 143.856 44.6157 144.887C31.986 146.31 35.7238 137.168 39.2878 129.907C41.6839 125.028 45.1779 119.565 48.6696 115.4C49.6854 114.188 51.7003 111.172 53.3822 112.125C55.7783 113.484 52.388 116.937 51.5193 118.488C49.9653 121.261 46.3917 127.467 50.0329 129.709C54.0313 132.17 59.1444 127.038 61.9411 124.564C67.1315 119.97 71.8441 114.811 76.6508 109.833L72.7899 106.469C68.7192 102.041 66.0408 95.91 66.0215 89.8171C66.0166 88.6396 66.5716 86.7526 66.4558 85.7391C66.3593 84.8946 64.2117 83.4709 65.2927 82.069C66.0046 81.4392 66.7019 81.5236 67.4838 81.9724C67.5803 80.2109 69.5372 78.7004 68.4996 76.9751C62.5081 70.0739 56.5191 63.0304 51.5072 55.3594C50.308 53.5231 45.9501 47.7029 51.1718 48.2121C53.7658 48.4655 59.8659 52.6448 62.303 54.2156C64.5857 55.6852 70.3745 59.1913 71.9623 60.9648C73.2436 62.3957 73.4077 64.7436 70.9923 64.606C68.2052 64.4468 62.1824 59.0972 60.6043 59.2998L60.2689 59.8621C65.8646 66.9877 71.6824 74.0047 77.9803 80.5246C80.7891 83.4347 83.6798 86.2676 86.8167 88.8205C87.5165 89.39 89.4638 90.4735 89.8547 90.9657V90.973Z" fill="white"/>
<path d="M85.825 72.3253C83.2696 72.4869 81.2668 74.2557 78.9865 75.1654C78.3423 75.1074 75.6735 71.7172 75.6687 70.9933C75.659 69.9919 78.5691 68.4982 79.5005 68.047C83.5326 66.1021 87.3669 65.7764 91.7079 65.2938C99.0869 57.2995 106.806 49.5392 115.671 43.1689C120.956 39.3708 128.072 33.5869 134.442 38.5456C142.227 44.6047 136.867 52.5555 132.883 58.9355C129.814 63.8532 124.58 71.0198 120.092 74.6176C119.081 75.4284 117.619 76.3767 117.049 74.4994C116.784 73.6234 118.948 70.7061 119.491 69.6734C121.108 66.5992 124.986 58.4022 124.324 55.176C123.827 52.7461 121.489 51.419 119.11 51.9209C116.888 52.389 109.694 57.3139 107.465 58.8559C100.404 63.7374 93.9472 69.4176 87.6927 75.2788C85.8322 76.0919 84.5437 73.7369 85.8226 72.3277L85.825 72.3253Z" fill="white"/>
<path d="M133.062 117.871C133.383 117.55 133.373 116.862 133.315 116.423C133.016 114.234 127.717 108.709 126.006 106.824C124.349 104.997 120.215 101.691 119.549 99.5126C119.001 97.7245 120.736 96.5566 122.442 97.1213C124.74 97.8789 130.885 104.918 132.765 107.068C135.707 110.429 143.086 118.884 143.928 122.931C145.038 128.256 139.828 128.28 136.201 127.038C127.77 124.152 112.629 113.928 105.853 107.919C105.02 107.181 102.113 104.447 102.067 103.535C102.014 102.536 104.82 99.4402 105.501 98.1468C108.625 92.1915 108.16 85.0201 104.369 79.4822C103.874 78.7607 102.033 76.5263 101.288 76.2922C98.2447 75.3367 96.4857 79.3302 94.3381 79.7693C92.953 80.0517 92.3112 78.2033 93.3101 77.2695L100.706 69.2149C102.014 68.532 104.342 70.571 105.38 71.4758C113.985 78.9851 115.242 90.0198 111.282 100.306C110.766 101.646 109.687 102.49 110.479 104.025C110.816 104.681 114.344 107.35 115.191 107.997C118.878 110.803 123.485 113.894 127.505 116.194C128.735 116.898 131.819 119.123 133.072 117.873L133.062 117.871Z" fill="white"/>
<path d="M112.291 125.962C107.098 122.356 102.441 118.071 97.8731 113.723C96.4736 112.661 94.1306 113.112 92.5862 113.711C89.4928 114.908 83.3975 123.109 80.6419 125.896C79.515 127.035 78.3423 128.092 77.1358 129.147C72.0757 129.415 75.2367 125.616 76.9041 123.609C81.1824 118.452 86.1797 113.646 90.5159 108.506C92.4294 106.607 88.5927 104.447 90.4 102.601C91.6693 101.303 93.4646 102.932 94.5166 103.815C97.3592 106.206 100.071 109.548 102.832 112.149C111.084 119.924 124.04 130.274 135.658 131.444C137.174 131.596 139.621 130.788 140.072 132.829C140.431 134.45 139.495 135.107 138.04 135.281C127.124 136.576 108.358 132.638 99.9507 125.168C98.8818 124.217 95.8004 120.194 98.971 120.33C100.144 120.38 104.417 123.693 105.935 124.49C106.9 124.996 111.193 126.987 112.004 126.878C112.674 126.787 112.655 126.422 112.293 125.969L112.291 125.962Z" fill="white"/>
<path d="M41.1868 42.8842C41.1772 49.5706 45.1948 55.7817 48.9495 61.0589C51.0029 63.9473 55.8507 68.9591 57.0716 71.7582C57.9041 73.6645 57.0934 74.813 55.0809 73.9878C52.68 73.0057 46.341 64.5095 44.6061 62.0241C41.2616 57.2271 36.8 49.2014 36.841 43.2485C36.8627 39.9548 38.9789 37.4549 42.3837 38.6686C44.2248 39.325 48.6937 43.444 45.8608 45.0293C43.4454 46.383 42.8542 43.777 41.1844 42.8842H41.1868Z" fill="white"/>
<path d="M36.759 59.3626C37.4249 59.3288 38.4312 60.0286 38.9017 60.4894C43.2837 66.7271 47.8974 72.832 52.8851 78.599C54.62 80.6043 57.8896 83.3189 59.1516 85.3627C59.7935 86.4027 60.0252 87.9301 58.4398 88.0291C57.1682 88.1063 53.6403 84.9887 52.5231 84.0283C47.241 79.487 40.0334 71.5241 36.4984 65.5471C35.7407 64.2634 34.3363 61.7104 35.0312 60.2554C35.3691 59.8331 36.2353 59.3891 36.759 59.3626Z" fill="white"/>
<path d="M91.5511 125.696C91.8551 125.629 92.1302 125.619 92.439 125.655C93.5828 125.793 99.0796 129.646 100.624 130.515C105.264 133.131 109.769 134.948 114.839 136.569C116.907 137.233 120.167 137.667 121.95 138.627C123.091 139.243 123.104 140.857 121.895 141.081C119.704 141.492 115.565 140.929 113.29 140.529C107.156 139.45 94.2826 134.32 90.5255 129.27C89.5362 127.938 89.8668 126.063 91.5511 125.691V125.696Z" fill="white"/>
<path d="M58.254 94.3294C61.1569 93.7334 57.7786 98.1637 57.103 98.9793C54.912 101.629 52.0526 104.194 49.7482 106.826C46.382 110.67 43.1607 115.101 39.7438 118.78C38.8486 119.746 37.6566 121.082 36.2329 120.607C35.1278 119.898 35.7962 118.199 36.2619 117.229C37.2464 115.185 41.2206 110.832 42.8808 108.887C45.453 105.871 54.912 95.0171 58.254 94.3318V94.3294Z" fill="white"/>
<path d="M79.3099 61.4643L76.7232 60.3133C71.1395 55.6659 63.4951 51.5493 58.2058 46.7377C57.3057 45.9173 56.355 45.2682 57.1006 43.958C58.5581 41.4002 62.4913 44.6819 64.0428 45.7267C68.8543 48.9746 75.6759 54.5824 78.7404 59.5025C79.1506 60.1637 79.655 60.6632 79.3123 61.4643H79.3099Z" fill="white"/>
<path d="M107.943 40.3022C109.06 40.2419 110.474 41.7138 109.731 42.7756C106.719 45.7146 103.433 48.3906 100.419 51.3224C98.7877 52.9126 93.0061 59.6135 91.4449 59.9682C90.2746 60.2337 89.459 59.7969 89.7944 58.5663C90.4387 56.2064 97.4895 49.3534 99.5791 47.3458C101.464 45.5336 104.922 42.0661 106.939 40.7125C107.224 40.5218 107.602 40.3215 107.943 40.3022Z" fill="white"/>
<path d="M136.809 70.9474C137.705 70.4165 138.679 70.4334 139.251 71.3769C140.045 72.6896 139.442 73.1867 138.764 74.2243C136.31 77.9837 129.435 85.8815 126.009 88.7361C123.859 90.5241 121.299 90.6737 122.882 87.2979C127.635 81.9435 132.536 76.7 136.812 70.9474H136.809Z" fill="white"/>
<path d="M140.301 58.6266C140.95 59.7173 140.446 60.8611 139.92 61.8697C138.407 64.7749 130.946 74.2026 128.407 76.1764C127.319 77.0234 124.508 78.4181 124.954 75.882C125.188 74.55 131.395 68.0204 132.731 66.2638C133.767 64.9028 137.586 58.67 138.6 58.3708C139.14 58.2116 139.821 58.3346 140.301 58.6242V58.6266Z" fill="white"/>
<path d="M66.451 110.258C68.2511 109.71 69.6892 111.442 68.6878 113.218C67.4789 115.361 61.9218 121.309 59.779 122.405C56.1282 124.272 53.1529 120.482 55.0423 118.392C56.1692 117.144 58.2974 118.199 59.9914 117.067C61.5888 115.998 65.3434 110.593 66.451 110.258Z" fill="white"/>
<path d="M113.336 67.0118C112.952 65.8584 116.132 62.6515 113.893 62.4657C113.676 62.4488 112.414 63.5057 112.124 63.7518C110.669 64.9849 108.454 68.6261 106.519 67.6826C103.505 66.2179 106.71 63.4599 108.153 62.193C109.649 60.8804 115.078 57.0051 116.863 56.8868C121.224 56.5949 116.299 64.5192 115.018 65.9211C114.559 66.423 114.098 67.13 113.338 67.0142L113.336 67.0118Z" fill="white"/>
<path d="M70.0753 40.9948C70.6327 40.8379 71.3228 41.0865 71.832 41.3133C73.912 42.2399 80.4898 49.5103 81.7687 51.6434C82.4637 52.8016 84.5968 56.8627 81.554 55.2363C79.3485 54.0564 72.2036 46.7595 70.2563 44.5781C69.4503 43.6756 68.3983 41.4677 70.0753 40.9948Z" fill="white"/>
<path d="M71.5111 132.723C73.053 134.407 70.985 136.697 69.8919 138.07C68.6323 139.653 65.3555 143.207 63.7122 144.194C62.484 144.933 60.3775 144.554 60.4909 142.92C60.6212 141.048 67.6816 134.523 68.9484 132.542C69.6675 131.939 70.9006 132.054 71.5135 132.725L71.5111 132.723Z" fill="white"/>
<path d="M113.507 35.9371C117.16 35.1167 117.18 41.0913 113.321 39.88C111.68 39.366 111.577 36.3715 113.507 35.9371Z" fill="white"/>
<path d="M59.9383 103.26C63.6447 102.415 63.3599 108.113 59.6946 107.019C58.1116 106.546 58.3023 103.634 59.9383 103.26Z" fill="white"/>
<path d="M97.586 95.0413C99.9459 94.6142 100.609 98.6511 97.9745 98.7935C95.7038 98.9166 95.4046 95.4346 97.586 95.0413Z" fill="white"/>
<path d="M59.586 78.7752C58.073 77.3419 60.0927 74.9337 61.8349 76.1668C63.6543 77.4553 61.2486 80.3485 59.586 78.7752Z" fill="white"/>
</svg>
